<svg width="87" height="81" viewBox="0 0 87 81" fill="none" xmlns="http://www.w3.org/2000/svg">
<path d="M9.04366 43.3482V80.0952H1V1H25.3541C33.3977 1 39.747 2.75014 44.402 6.2507C49.0566 9.75099 51.3842 15.0389 51.3842 22.1144C51.3842 27.6256 49.6527 32.262 46.1893 36.0231C42.7262 39.7842 37.7175 41.9628 31.1634 42.5586L22.4496 43.3406H18.3693L41.8639 71.9484H45.4634L78.3718 1H86.1744L48.7653 80.0952H39.8935L9.04366 43.3482ZM9.04366 35.9673H23.3434C26.9183 35.9673 29.9532 35.5949 32.4482 34.8501C34.9431 34.1053 36.9355 33.1186 38.4251 31.8896C39.9146 30.6606 40.9946 29.2085 41.6648 27.5327C42.3352 25.8569 42.6704 24.0507 42.6704 22.1144C42.6704 20.2524 42.3352 18.4837 41.6648 16.8079C40.9946 15.1321 39.9146 13.6611 38.4251 12.3949C36.9355 11.129 34.9431 10.142 32.4482 9.43465C29.9532 8.72704 26.9183 8.37324 23.3434 8.37324H9.04366V35.9673Z" stroke="#00EE01" stroke-miterlimit="2" stroke-linejoin="round"/>
</svg>
